<svg xmlns="http://www.w3.org/2000/svg" version="1.1" xmlns:xlink="http://www.w3.org/1999/xlink" xmlns:svgjs="http://svgjs.dev/svgjs" width="2000" height="1500" viewBox="0 0 2000 1500"><rect width="2000" height="1500" fill="#000000"></rect><g transform="matrix(0.75,0,0,0.75,250,0)"><svg viewBox="0 0 280 280" data-background-color="#ffffff" preserveAspectRatio="xMidYMid meet" height="2000" width="2000" xmlns="http://www.w3.org/2000/svg" xmlns:xlink="http://www.w3.org/1999/xlink"><g id="tight-bounds" transform="matrix(1,0,0,1,0,0)"><svg viewBox="0 0 280 280" height="280" width="280"><g><svg viewBox="0 0 280 280" height="280" width="280"><g><svg viewBox="0 0 280 280" height="280" width="280"><g id="textblocktransform"><svg viewBox="0 0 280 280" height="280" width="280" id="textblock"><g><svg viewBox="0 0 280 280" height="280" width="280"><g transform="matrix(1,0,0,1,76.55931883537997,74.00336708925556)"><svg viewBox="0 0 126.88136232924008 131.99326582148888" height="131.99326582148888" width="126.88136232924008"><g id="icon-0"><svg xmlns="http://www.w3.org/2000/svg" xmlns:xlink="http://www.w3.org/1999/xlink" version="1.1" x="0" y="0" viewBox="9.84 8.221999999999998 80.32 83.55600000000001" enable-background="new 0 0 100 100" xml:space="preserve" height="131.99326582148888" width="126.88136232924008" class="icon-xg-0" data-fill-palette-color="accent" id="xg-0"><g fill="#e3c4e5" data-fill-palette-color="accent"><path fill="none" d="M23.352 59.069c-1.719 0-3.117 1.399-3.117 3.119 0 1.719 1.398 3.118 3.117 3.118 1.721 0 3.119-1.399 3.119-3.118C26.471 60.469 25.072 59.069 23.352 59.069z"></path><path fill="none" d="M10.844 63.986c0 1.719 1.4 3.118 3.119 3.118s3.119-1.399 3.119-3.118c0-1.72-1.4-3.118-3.119-3.118S10.844 62.267 10.844 63.986z"></path><path fill="none" d="M23.418 27.693c0-1.719-1.4-3.118-3.119-3.118s-3.119 1.399-3.119 3.118c0 1.72 1.4 3.118 3.119 3.118S23.418 29.413 23.418 27.693z"></path><path fill="none" d="M20.336 42.986c-1.719 0-3.117 1.398-3.117 3.118 0 1.719 1.398 3.118 3.117 3.118 1.721 0 3.119-1.399 3.119-3.118C23.455 44.385 22.057 42.986 20.336 42.986z"></path><path fill="none" d="M54.449 15.463c1.721 0 3.119-1.398 3.119-3.118 0-1.719-1.398-3.118-3.119-3.118-1.719 0-3.117 1.399-3.117 3.118C51.332 14.064 52.73 15.463 54.449 15.463z"></path><path fill="none" d="M82.82 27.693c0-1.719-1.398-3.118-3.119-3.118-1.719 0-3.117 1.399-3.117 3.118 0 1.72 1.398 3.118 3.117 3.118C81.422 30.812 82.82 29.413 82.82 27.693z"></path><path fill="none" d="M32.938 15.695c-1.719 0-3.117 1.399-3.117 3.118 0 1.72 1.398 3.118 3.117 3.118 1.721 0 3.119-1.398 3.119-3.118C36.057 17.095 34.658 15.695 32.938 15.695z"></path><path fill="none" d="M79.664 49.223c1.719 0 3.117-1.399 3.117-3.118 0-1.72-1.398-3.118-3.117-3.118-1.721 0-3.117 1.398-3.117 3.118C76.547 47.823 77.943 49.223 79.664 49.223z"></path><path fill="none" d="M76.648 59.069c-1.721 0-3.119 1.399-3.119 3.119 0 1.719 1.398 3.118 3.119 3.118 1.719 0 3.117-1.399 3.117-3.118C79.766 60.469 78.367 59.069 76.648 59.069z"></path><path fill="none" d="M45.104 84.537c-1.719 0-3.117 1.398-3.117 3.118 0 1.719 1.398 3.118 3.117 3.118 1.721 0 3.119-1.399 3.119-3.118C48.223 85.936 46.824 84.537 45.104 84.537z"></path><path fill="none" d="M86.037 60.868c-1.719 0-3.117 1.398-3.117 3.118 0 1.719 1.398 3.118 3.117 3.118s3.119-1.399 3.119-3.118C89.156 62.267 87.756 60.868 86.037 60.868z"></path><path fill="none" d="M66.615 78.067c-1.719 0-3.117 1.399-3.117 3.119 0 1.719 1.398 3.118 3.117 3.118 1.721 0 3.119-1.399 3.119-3.118C69.734 79.467 68.336 78.067 66.615 78.067z"></path><path d="M63.457 67.553V32.697c0-0.903-0.516-1.636-1.154-1.636h-24.59c-0.637 0-1.154 0.732-1.154 1.636v34.855c0 0.903 0.518 1.636 1.154 1.636h24.59C62.941 69.188 63.457 68.456 63.457 67.553z" fill="#ffffff" data-fill-palette-color="accent"></path><path d="M45.904 19.316v4.305c-1.332 0.237-2.346 1.396-2.346 2.797 0 1.573 1.275 2.849 2.848 2.849 1.574 0 2.85-1.275 2.85-2.849 0-1.4-1.014-2.559-2.346-2.797v-4.808c0-0.277-0.225-0.502-0.504-0.502H37.01c-0.25-2.035-1.969-3.621-4.072-3.621-2.273 0-4.123 1.85-4.123 4.123s1.85 4.124 4.123 4.124c2.104 0 3.822-1.587 4.072-3.621H45.904zM32.938 21.932c-1.719 0-3.117-1.398-3.117-3.118 0-1.719 1.398-3.118 3.117-3.118 1.721 0 3.119 1.399 3.119 3.118C36.057 20.533 34.658 21.932 32.938 21.932z" fill="#ffffff" data-fill-palette-color="accent"></path><path d="M53.947 16.418v7.203c-1.332 0.238-2.346 1.396-2.346 2.797 0 1.573 1.275 2.849 2.848 2.849 1.574 0 2.85-1.275 2.85-2.849 0-1.401-1.016-2.56-2.348-2.797v-7.203c2.035-0.251 3.621-1.971 3.621-4.073 0-2.273-1.848-4.123-4.123-4.123-2.273 0-4.123 1.85-4.123 4.123C50.326 14.446 51.912 16.166 53.947 16.418zM54.449 9.227c1.721 0 3.119 1.399 3.119 3.118 0 1.72-1.398 3.118-3.119 3.118-1.719 0-3.117-1.398-3.117-3.118C51.332 10.626 52.73 9.227 54.449 9.227z" fill="#ffffff" data-fill-palette-color="accent"></path><path d="M66.615 77.063c-2.102 0-3.82 1.587-4.072 3.621h-8.895v-4.305c1.334-0.237 2.348-1.396 2.348-2.798 0-1.572-1.275-2.848-2.85-2.848-1.572 0-2.848 1.275-2.848 2.848 0 1.401 1.014 2.56 2.346 2.798v4.808c0 0.277 0.225 0.502 0.502 0.502h9.396c0.252 2.035 1.971 3.621 4.072 3.621 2.273 0 4.123-1.85 4.123-4.123C70.738 78.912 68.889 77.063 66.615 77.063zM66.615 84.305c-1.719 0-3.117-1.399-3.117-3.118 0-1.72 1.398-3.119 3.117-3.119 1.721 0 3.119 1.399 3.119 3.119C69.734 82.905 68.336 84.305 66.615 84.305z" fill="#ffffff" data-fill-palette-color="accent"></path><path d="M45.607 83.582v-7.203c1.332-0.238 2.346-1.396 2.346-2.798 0-1.572-1.275-2.848-2.85-2.848-1.572 0-2.848 1.275-2.848 2.848 0 1.401 1.014 2.561 2.346 2.798v7.203c-2.035 0.251-3.621 1.971-3.621 4.073 0 2.273 1.85 4.123 4.123 4.123s4.125-1.85 4.125-4.123C49.229 85.554 47.641 83.834 45.607 83.582zM45.104 90.773c-1.719 0-3.117-1.399-3.117-3.118 0-1.72 1.398-3.118 3.117-3.118 1.721 0 3.119 1.398 3.119 3.118C48.223 89.374 46.824 90.773 45.104 90.773z" fill="#ffffff" data-fill-palette-color="accent"></path><path d="M68.605 40.91c1.402 0 2.561-1.013 2.797-2.346h8.01c0.277 0 0.502-0.225 0.502-0.502v-6.26h-0.066c2.205-0.079 3.977-1.886 3.977-4.109 0-2.273-1.848-4.123-4.123-4.123-2.273 0-4.123 1.85-4.123 4.123 0 2.224 1.773 4.03 3.979 4.109h-0.648v5.757h-7.506c-0.236-1.333-1.395-2.346-2.797-2.346-1.572 0-2.848 1.275-2.848 2.849S67.033 40.91 68.605 40.91zM76.584 27.693c0-1.719 1.398-3.118 3.117-3.118 1.721 0 3.119 1.399 3.119 3.118 0 1.72-1.398 3.118-3.119 3.118C77.982 30.812 76.584 29.413 76.584 27.693z" fill="#ffffff" data-fill-palette-color="accent"></path><path d="M86.541 59.913v-5.995c0-0.277-0.225-0.502-0.504-0.502H71.348c-0.324-1.217-1.424-2.118-2.742-2.118-1.572 0-2.848 1.275-2.848 2.849s1.275 2.848 2.848 2.848c1.479 0 2.68-1.131 2.82-2.573h14.109v5.492c-2.035 0.252-3.621 1.972-3.621 4.073 0 2.273 1.85 4.123 4.123 4.123s4.123-1.85 4.123-4.123C90.16 61.885 88.574 60.165 86.541 59.913zM86.037 67.104c-1.719 0-3.117-1.399-3.117-3.118 0-1.72 1.398-3.118 3.117-3.118s3.119 1.398 3.119 3.118C89.156 65.705 87.756 67.104 86.037 67.104z" fill="#ffffff" data-fill-palette-color="accent"></path><path d="M68.605 48.952c1.402 0 2.561-1.014 2.799-2.346h4.188c0.25 2.035 1.971 3.621 4.072 3.621 2.273 0 4.123-1.85 4.123-4.123s-1.85-4.124-4.123-4.124c-2.102 0-3.82 1.587-4.072 3.62h-4.188c-0.238-1.332-1.398-2.345-2.799-2.345-1.572 0-2.848 1.275-2.848 2.849S67.033 48.952 68.605 48.952zM79.664 42.986c1.719 0 3.117 1.398 3.117 3.118 0 1.719-1.398 3.118-3.117 3.118-1.721 0-3.117-1.399-3.117-3.118C76.547 44.385 77.943 42.986 79.664 42.986z" fill="#ffffff" data-fill-palette-color="accent"></path><path d="M76.648 58.064c-2.102 0-3.82 1.587-4.072 3.62h-1.172c-0.238-1.332-1.398-2.345-2.799-2.345-1.572 0-2.848 1.275-2.848 2.849s1.275 2.848 2.848 2.848c1.402 0 2.561-1.014 2.799-2.346h1.172c0.25 2.035 1.971 3.621 4.072 3.621 2.273 0 4.123-1.85 4.123-4.123S78.922 58.064 76.648 58.064zM76.648 65.307c-1.721 0-3.119-1.399-3.119-3.118 0-1.72 1.398-3.119 3.119-3.119 1.719 0 3.117 1.399 3.117 3.119C79.766 63.907 78.367 65.307 76.648 65.307z" fill="#ffffff" data-fill-palette-color="accent"></path><path d="M31.395 35.214c-1.4 0-2.559 1.013-2.797 2.346h-7.506v-5.757h-0.648c2.205-0.079 3.979-1.886 3.979-4.109 0-2.273-1.85-4.123-4.123-4.123s-4.123 1.85-4.123 4.123c0 2.224 1.771 4.03 3.977 4.109h-0.066v6.26c0 0.277 0.225 0.502 0.502 0.502h8.01c0.238 1.333 1.396 2.346 2.797 2.346 1.574 0 2.848-1.274 2.848-2.848S32.969 35.214 31.395 35.214zM17.18 27.693c0-1.719 1.4-3.118 3.119-3.118s3.119 1.399 3.119 3.118c0 1.72-1.4 3.118-3.119 3.118S17.18 29.413 17.18 27.693z" fill="#ffffff" data-fill-palette-color="accent"></path><path d="M31.395 51.298c-1.318 0-2.418 0.901-2.742 2.118H13.963c-0.277 0-0.504 0.225-0.504 0.502v5.995c-2.033 0.252-3.619 1.972-3.619 4.073 0 2.273 1.85 4.123 4.123 4.123s4.123-1.85 4.123-4.123c0-2.102-1.586-3.821-3.621-4.073v-5.492h14.109c0.141 1.442 1.342 2.573 2.82 2.573 1.574 0 2.848-1.274 2.848-2.848S32.969 51.298 31.395 51.298zM17.082 63.986c0 1.719-1.4 3.118-3.119 3.118s-3.119-1.399-3.119-3.118c0-1.72 1.4-3.118 3.119-3.118S17.082 62.267 17.082 63.986z" fill="#ffffff" data-fill-palette-color="accent"></path><path d="M31.395 43.256c-1.4 0-2.559 1.013-2.799 2.345h-4.188c-0.25-2.033-1.971-3.62-4.072-3.62-2.273 0-4.123 1.851-4.123 4.124s1.85 4.123 4.123 4.123c2.102 0 3.822-1.586 4.072-3.621h4.188c0.238 1.332 1.398 2.346 2.799 2.346 1.572 0 2.848-1.274 2.848-2.848S32.967 43.256 31.395 43.256zM20.336 49.223c-1.719 0-3.117-1.399-3.117-3.118 0-1.72 1.398-3.118 3.117-3.118 1.721 0 3.119 1.398 3.119 3.118C23.455 47.823 22.057 49.223 20.336 49.223z" fill="#ffffff" data-fill-palette-color="accent"></path><path d="M31.395 59.34c-1.4 0-2.559 1.013-2.799 2.345h-1.172c-0.25-2.033-1.971-3.62-4.072-3.62-2.273 0-4.123 1.851-4.123 4.124s1.85 4.123 4.123 4.123c2.102 0 3.822-1.586 4.072-3.621h1.172c0.238 1.332 1.398 2.346 2.799 2.346 1.572 0 2.848-1.274 2.848-2.848S32.967 59.34 31.395 59.34zM23.352 65.307c-1.719 0-3.117-1.399-3.117-3.118 0-1.72 1.398-3.119 3.117-3.119 1.721 0 3.119 1.399 3.119 3.119C26.471 63.907 25.072 65.307 23.352 65.307z" fill="#ffffff" data-fill-palette-color="accent"></path></g></svg></g></svg></g><g id="text-0"><path d="M25.105 97.072v0c-0.143 0.479-0.416 1.309-0.819 2.488-0.405 1.185-1.119 2.769-2.141 4.75v0l8.738 2.987-1.005 2.941-26.377-9.017c0.838-3.46 1.826-6.854 2.964-10.183v0c0.953-2.787 2.248-4.527 3.886-5.22v0c1.383-0.584 3.297-0.457 5.743 0.379v0l2.043 0.698c1.891 0.647 3.438 1.407 4.638 2.283v0c2.489 1.844 3.266 4.475 2.33 7.894zM8.991 91.775v0c-1.08 3.159-1.837 5.579-2.271 7.262v0l12.985 4.439c0.955-1.927 1.701-3.679 2.24-5.255 0.539-1.576 0.812-2.747 0.82-3.512 0.008-0.765-0.188-1.427-0.589-1.986v0c-0.673-0.955-2.35-1.891-5.029-2.807v0l-2.147-0.734c-1.652-0.565-2.939-0.642-3.861-0.232v0c-0.92 0.383-1.636 1.324-2.148 2.825z" fill="#ffffff" data-fill-palette-color="primary"></path><path d="M47.508 74.743l-21.711-17.514c2.251-3.278 4.221-5.965 5.911-8.06v0l0.232-0.288c1.845-2.287 3.651-3.475 5.419-3.565v0c1.505-0.062 3.258 0.715 5.26 2.33v0c2.567 2.071 4.181 3.976 4.841 5.715v0c0.664 1.777 0.459 3.666-0.616 5.667v0c0.654-0.004 1.328 0.014 2.024 0.054v0l1.883 0.132 8.643 0.796-2.297 2.847-7.791-0.88c-2.126-0.208-3.588-0.275-4.386-0.198v0l-0.125 0.155c-0.554 0.666-1.092 1.306-1.614 1.921v0l-1.749 1.993 8.028 6.476zM29.561 56.271l9.95 8.027c0.85-0.958 2.137-2.505 3.86-4.642v0c1.414-1.753 1.886-3.346 1.415-4.779v0c-0.431-1.238-1.723-2.725-3.875-4.461v0c-1.815-1.464-3.327-2.02-4.535-1.669v0c-0.717 0.209-1.321 0.582-1.814 1.118-0.493 0.527-0.911 1.003-1.255 1.428-0.339 0.42-0.665 0.829-0.977 1.228-0.313 0.398-0.621 0.796-0.924 1.193-0.303 0.397-0.606 0.804-0.908 1.22v0z" fill="#ffffff" data-fill-palette-color="primary"></path><path d="M73.119 49.196l-6.166-28.795 3.679-2.143 22.541 19.257-2.858 1.665-6.537-5.7-9.741 5.674 1.863 8.423zM73.449 36.478l8.256-4.81-11.661-10.21 0.559 2.092z" fill="#ffffff" data-fill-palette-color="primary"></path><path d="M108.017 31.253l0.344-2.539c0 0 0.151 0.034 0.453 0.101v0c1.434 0.322 2.875 0.318 4.324-0.012v0c1.26-0.287 2.064-0.884 2.41-1.79v0c0.327-0.874 0.281-2.23-0.138-4.069v0l-4.581-20.083 2.992-0.683 4.125 18.086c0.507 2.222 0.774 3.811 0.8 4.769 0.021 0.959-0.045 1.75-0.197 2.372-0.152 0.622-0.421 1.183-0.806 1.68v0c-0.789 1.034-2.136 1.769-4.039 2.203v0c-1.637 0.373-3.245 0.426-4.823 0.157v0c-0.377-0.064-0.665-0.129-0.864-0.192z" fill="#ffffff" data-fill-palette-color="primary"></path><path d="M146.562 28.777l-3.441-28.777 3.333 0.483 2.326 21.708 0.299 4.548 1.689-4.26 8.614-20.12 3.601 0.522 2.94 26.452 1.632-4.499 8.138-20.11 3.254 0.472-11.109 26.667-4.599-0.667-2.44-20.573-0.134-4.786-1.527 4.545-8.343 19.009z" fill="#ffffff" data-fill-palette-color="primary"></path><path d="M192.8 40.776l13.693-24.406 13.833 7.761-1.325 2.362-11.122-6.24-4.725 8.42 8.97 5.033-1.316 2.344-8.969-5.032-5.013 8.934 11.549 6.48-1.315 2.345z" fill="#ffffff" data-fill-palette-color="primary"></path><path d="M221.875 59.448l2.706-0.812c0.755 3.043 2.014 5.551 3.777 7.523v0c2.047 2.29 3.979 2.976 5.796 2.059v0c0.593-0.307 1.202-0.74 1.828-1.3v0l0.536-0.479c0.636-0.568 1.11-1.073 1.423-1.514 0.307-0.436 0.454-0.911 0.44-1.426v0c-0.015-0.836-0.674-2.258-1.977-4.266v0c-1.164-1.792-1.904-3.084-2.218-3.875-0.319-0.796-0.522-1.504-0.61-2.122-0.088-0.618-0.058-1.24 0.09-1.864v0c0.318-1.294 1.199-2.587 2.644-3.88v0l0.134-0.12c3-2.683 5.908-3.044 8.725-1.083v0c0.894 0.63 1.788 1.445 2.681 2.443v0l0.159 0.179c2.087 2.335 3.455 4.544 4.104 6.628v0l-2.72 1.157c-0.824-2.481-1.911-4.477-3.261-5.986v0l-0.113-0.127c-1.488-1.664-2.827-2.527-4.017-2.589v0c-0.997-0.056-2.144 0.496-3.441 1.656v0l-0.06 0.053c-1.48 1.324-2.085 2.602-1.814 3.834v0c0.19 0.822 0.815 2.051 1.875 3.687 1.051 1.635 1.81 2.874 2.277 3.716 0.467 0.843 0.739 1.672 0.817 2.487v0c0.141 1.697-0.856 3.501-2.993 5.411v0l-0.178 0.16c-3.263 2.918-6.381 3.345-9.352 1.282v0c-0.928-0.628-1.713-1.301-2.357-2.022-0.64-0.715-1.197-1.388-1.671-2.019-0.474-0.64-0.92-1.318-1.337-2.035v0c-0.982-1.688-1.613-3.273-1.893-4.756z" fill="#ffffff" data-fill-palette-color="primary"></path><path d="M243.412 92.915l25.75-10.962 1.217 2.86-11.633 4.952 5.179 12.167 11.634-4.952 1.209 2.841-25.749 10.962-1.21-2.842 11.679-4.972-5.179-12.166-11.679 4.972z" fill="#ffffff" data-fill-palette-color="primary"></path><path d="M3.228 143.55c0-5.984 4.851-10.836 10.835-10.835 5.984 0 10.836 4.851 10.836 10.835 0 5.984-4.851 10.836-10.836 10.836-5.984 0-10.836-4.851-10.835-10.836z" fill="#ffffff" data-fill-palette-color="primary"></path><path d="M255.101 143.55c0-5.984 4.851-10.836 10.836-10.835 5.984 0 10.836 4.851 10.835 10.835 0 5.984-4.851 10.836-10.835 10.836-5.984 0-10.836-4.851-10.836-10.836z" fill="#ffffff" data-fill-palette-color="primary"></path></g><g id="text-1"><path d="M21.173 191.596v0c-0.183-0.473-0.48-1.308-0.891-2.505-0.411-1.198-0.822-2.909-1.233-5.135v0l-8.859 3.038-1.021-2.978 26.727-9.166c1.482 3.295 2.801 6.626 3.955 9.992v0c0.971 2.83 1.014 5.031 0.13 6.602v0c-0.749 1.328-2.362 2.416-4.84 3.265v0l-2.07 0.71c-1.916 0.657-3.624 1.007-5.124 1.05v0c-3.139 0.069-5.397-1.555-6.774-4.873zM37.369 185.831v0c-1.1-3.208-2.001-5.618-2.702-7.231v0l-13.15 4.51c0.438 2.139 0.93 4.006 1.477 5.601 0.547 1.595 1.053 2.7 1.517 3.315 0.467 0.622 1.034 1.033 1.702 1.234v0c1.139 0.342 3.063 0.048 5.773-0.881v0l2.174-0.746c1.677-0.575 2.759-1.312 3.246-2.212v0c0.496-0.875 0.484-2.071-0.037-3.59z" fill="#ffffff" data-fill-palette-color="secondary"></path><path d="M30.469 226.127l21.996-17.768c2.763 2.933 5.003 5.462 6.72 7.588v0l0.232 0.287c1.872 2.317 2.666 4.361 2.383 6.131v0c-0.269 1.502-1.416 3.071-3.443 4.709v0c-2.597 2.098-4.83 3.289-6.699 3.573v0c-1.901 0.276-3.724-0.332-5.47-1.825v0c-0.141 0.653-0.306 1.318-0.496 1.994v0l-0.53 1.841-2.634 8.398-2.33-2.885 2.535-7.534c0.659-2.057 1.037-3.488 1.132-4.293v0l-0.132-0.163c-0.542-0.693-1.059-1.363-1.549-2.013v0l-1.604-2.16-8.133 6.569zM52.608 212.291l-10.076 8.139c0.765 1.053 2.02 2.66 3.766 4.821v0c1.436 1.778 2.916 2.587 4.439 2.427v0c1.316-0.163 3.065-1.126 5.247-2.889v0c1.835-1.482 2.709-2.86 2.622-4.135v0c-0.052-0.754-0.291-1.431-0.715-2.03-0.423-0.609-0.807-1.126-1.15-1.551-0.348-0.43-0.685-0.843-1.013-1.238-0.328-0.395-0.656-0.785-0.984-1.171-0.329-0.386-0.667-0.772-1.014-1.159v0z" fill="#ffffff" data-fill-palette-color="secondary"></path><path d="M62.025 256.791l22.29-19.848 3.732 2.172-5.686 29.508-2.903-1.689 1.751-8.613-9.875-5.745-6.493 5.854zM73.409 250.719l8.363 4.865 3.161-15.39-1.558 1.545z" fill="#ffffff" data-fill-palette-color="secondary"></path><path d="M103.408 275.339l1.428-2.165c0 0 0.124 0.1 0.372 0.3v0c1.17 0.924 2.492 1.554 3.966 1.891v0c1.273 0.291 2.267 0.101 2.981-0.57v0c0.683-0.657 1.238-1.918 1.664-3.782v0l4.652-20.354 3.031 0.693-4.19 18.327c-0.515 2.254-0.97 3.825-1.364 4.712-0.399 0.879-0.807 1.572-1.223 2.079-0.408 0.501-0.902 0.894-1.48 1.179v0c-1.174 0.593-2.723 0.669-4.645 0.23v0c-1.663-0.38-3.156-1.039-4.48-1.978v0c-0.318-0.223-0.555-0.411-0.712-0.562z" fill="#ffffff" data-fill-palette-color="secondary"></path><path d="M149.49 280l-11.612-26.982 3.373-0.488 8.494 20.425 1.607 4.342 0.411-4.634 2.595-22.026 3.65-0.527 10.469 24.865 0.291-4.838 2.12-21.887 3.304-0.477-3.137 29.112-4.659 0.673-8.28-19.294-1.506-4.619-0.176 4.862-2.65 20.873z" fill="#ffffff" data-fill-palette-color="secondary"></path><path d="M203.389 265.499l-13.862-24.747 14.022-7.854 1.343 2.398-11.275 6.315 4.782 8.537 9.095-5.094 1.333 2.38-9.094 5.095 5.07 9.051 11.71-6.56 1.334 2.381z" fill="#ffffff" data-fill-palette-color="secondary"></path><path d="M235.237 239.978l-1.121-2.642c2.979-1.097 5.365-2.645 7.157-4.645v0c2.077-2.317 2.552-4.339 1.425-6.066v0c-0.371-0.565-0.873-1.132-1.509-1.701v0l-0.543-0.487c-0.645-0.578-1.206-0.996-1.682-1.253-0.477-0.267-0.973-0.362-1.488-0.287v0c-0.844 0.103-2.203 0.925-4.077 2.466v0c-1.676 1.37-2.897 2.258-3.662 2.663-0.765 0.415-1.455 0.7-2.07 0.857-0.61 0.151-1.238 0.188-1.884 0.11v0c-1.34-0.172-2.742-0.914-4.205-2.227v0l-0.134-0.12c-3.036-2.722-3.725-5.612-2.066-8.671v0c0.537-0.968 1.259-1.959 2.166-2.971v0l0.161-0.178c2.117-2.362 4.189-3.989 6.216-4.884v0l1.467 2.617c-2.407 1.108-4.296 2.426-5.666 3.954v0l-0.114 0.127c-1.508 1.682-2.229 3.125-2.163 4.329v0c0.055 1.016 0.741 2.114 2.056 3.293v0l0.059 0.053c1.498 1.343 2.852 1.81 4.061 1.399v0c0.81-0.285 1.981-1.052 3.513-2.301 1.527-1.244 2.69-2.148 3.49-2.71 0.79-0.562 1.596-0.927 2.418-1.095v0c1.69-0.338 3.616 0.463 5.779 2.403v0l0.178 0.16c3.304 2.962 4.082 6.058 2.333 9.286v0c-0.53 1.001-1.12 1.864-1.769 2.588-0.654 0.729-1.272 1.369-1.856 1.921-0.579 0.546-1.209 1.069-1.889 1.568v0c-1.596 1.182-3.123 1.997-4.581 2.444z" fill="#ffffff" data-fill-palette-color="secondary"></path><path d="M263.422 203.075l-26.077-11.161 1.239-2.895 11.78 5.042 5.274-12.322-11.78-5.042 1.235-2.885 26.077 11.161-1.235 2.885-11.826-5.061-5.274 12.322 11.826 5.061z" fill="#ffffff" data-fill-palette-color="secondary"></path></g></svg></g></svg></g></svg></g></svg></g><defs></defs></svg><rect width="280" height="280" fill="none" stroke="none" visibility="hidden"></rect></g></svg></g></svg>